<svg xmlns="http://www.w3.org/2000/svg" width="16" height="16" viewBox="0 0 16 16" fill="none">
  <path d="M 3.429 11.429 C 4.06 11.429 4.571 11.94 4.571 12.571 L 4.571 14.857 C 4.571 15.488 4.06 16 3.429 16 L 1.143 16 C 0.512 16 0 15.488 0 14.857 L 0 12.571 C 0 11.94 0.512 11.429 1.143 11.429 L 3.429 11.429 Z M 9.143 11.429 C 9.774 11.429 10.286 11.94 10.286 12.571 L 10.286 14.857 C 10.286 15.488 9.774 16 9.143 16 L 6.857 16 C 6.226 16 5.714 15.488 5.714 14.857 L 5.714 12.571 C 5.714 11.94 6.226 11.429 6.857 11.429 L 9.143 11.429 Z M 14.857 11.429 C 15.488 11.429 16 11.94 16 12.571 L 16 14.857 C 16 15.488 15.488 16 14.857 16 L 12.571 16 C 11.94 16 11.429 15.488 11.429 14.857 L 11.429 12.571 C 11.429 11.94 11.94 11.429 12.571 11.429 L 14.857 11.429 Z M 1.143 14.857 L 3.429 14.857 L 3.429 12.571 L 1.143 12.571 L 1.143 14.857 Z M 6.857 14.857 L 9.143 14.857 L 9.143 12.571 L 6.857 12.571 L 6.857 14.857 Z M 12.571 14.857 L 14.857 14.857 L 14.857 12.571 L 12.571 12.571 L 12.571 14.857 Z M 3.429 5.714 C 4.06 5.714 4.571 6.226 4.571 6.857 L 4.571 9.143 C 4.571 9.774 4.06 10.286 3.429 10.286 L 1.143 10.286 C 0.512 10.286 0 9.774 0 9.143 L 0 6.857 C 0 6.226 0.512 5.714 1.143 5.714 L 3.429 5.714 Z M 9.143 5.714 C 9.774 5.714 10.286 6.226 10.286 6.857 L 10.286 9.143 C 10.286 9.774 9.774 10.286 9.143 10.286 L 6.857 10.286 C 6.226 10.286 5.714 9.774 5.714 9.143 L 5.714 6.857 C 5.714 6.226 6.226 5.714 6.857 5.714 L 9.143 5.714 Z M 14.857 5.714 C 15.488 5.714 16 6.226 16 6.857 L 16 9.143 C 16 9.774 15.488 10.286 14.857 10.286 L 12.571 10.286 C 11.94 10.286 11.429 9.774 11.429 9.143 L 11.429 6.857 C 11.429 6.226 11.94 5.714 12.571 5.714 L 14.857 5.714 Z M 1.143 9.143 L 3.429 9.143 L 3.429 6.857 L 1.143 6.857 L 1.143 9.143 Z M 6.857 9.143 L 9.143 9.143 L 9.143 6.857 L 6.857 6.857 L 6.857 9.143 Z M 12.571 9.143 L 14.857 9.143 L 14.857 6.857 L 12.571 6.857 L 12.571 9.143 Z M 3.429 0 C 4.06 0 4.571 0.512 4.571 1.143 L 4.571 3.429 C 4.571 4.06 4.06 4.571 3.429 4.571 L 1.143 4.571 C 0.512 4.571 0 4.06 0 3.429 L 0 1.143 C 0 0.512 0.512 0 1.143 0 L 3.429 0 Z M 9.143 0 C 9.774 0 10.286 0.512 10.286 1.143 L 10.286 3.429 C 10.286 4.06 9.774 4.571 9.143 4.571 L 6.857 4.571 C 6.226 4.571 5.714 4.06 5.714 3.429 L 5.714 1.143 C 5.714 0.512 6.226 0 6.857 0 L 9.143 0 Z M 14.857 0 C 15.488 0 16 0.512 16 1.143 L 16 3.429 C 16 4.06 15.488 4.571 14.857 4.571 L 12.571 4.571 C 11.94 4.571 11.429 4.06 11.429 3.429 L 11.429 1.143 C 11.429 0.512 11.94 0 12.571 0 L 14.857 0 Z M 1.143 3.429 L 3.429 3.429 L 3.429 1.143 L 1.143 1.143 L 1.143 3.429 Z M 6.857 3.429 L 9.143 3.429 L 9.143 1.143 L 6.857 1.143 L 6.857 3.429 Z M 12.571 1.143 L 12.571 3.429 L 14.857 3.429 L 14.857 1.143 L 12.571 1.143 Z" fill="currentColor" fill-rule="nonzero"></path>
</svg>