<svg xmlns="http://www.w3.org/2000/svg" width="16.240" height="16" viewBox="0 0 16.240 16" fill="none">
  <path d="M 12.76 6.96 C 14.262 6.959 15.596 7.924 16.065 9.352 C 16.535 10.779 16.035 12.346 14.826 13.238 C 13.848 13.96 12.584 14.107 11.488 13.675 C 11.034 13.496 10.495 13.526 10.15 13.871 L 8.19 15.83 C 7.964 16.057 7.597 16.057 7.37 15.83 C 7.144 15.604 7.144 15.236 7.37 15.01 L 9.328 13.053 C 9.673 12.707 9.702 12.166 9.523 11.712 C 9.159 10.792 9.2 9.745 9.666 8.842 C 10.263 7.684 11.457 6.958 12.76 6.96 Z M 12.76 0 C 13.4 0.001 13.919 0.52 13.92 1.16 L 13.92 4.061 C 13.92 4.381 13.66 4.641 13.34 4.641 C 13.019 4.641 12.76 4.381 12.76 4.061 L 12.76 2.16 C 12.76 1.608 12.312 1.16 11.76 1.16 L 2.16 1.16 C 1.608 1.16 1.16 1.608 1.16 2.16 L 1.16 5.223 C 1.16 6.114 2.238 6.56 2.867 5.93 L 3.239 5.558 C 3.692 5.105 4.427 5.105 4.88 5.558 L 7.71 8.388 C 7.937 8.614 7.937 8.982 7.71 9.208 C 7.484 9.436 7.116 9.436 6.889 9.209 L 4.767 7.087 C 4.376 6.696 3.743 6.696 3.352 7.087 L 1.453 8.985 C 1.266 9.173 1.16 9.427 1.16 9.693 L 1.16 11.761 C 1.16 12.313 1.608 12.761 2.16 12.761 L 5.22 12.761 C 5.54 12.761 5.8 13.02 5.8 13.34 C 5.8 13.66 5.54 13.92 5.22 13.92 L 1.16 13.92 C 0.52 13.919 0.001 13.401 0 12.761 L 0 1.16 C 0.001 0.52 0.52 0.001 1.16 0 L 12.76 0 Z M 12.76 8.12 C 11.478 8.12 10.439 9.159 10.439 10.44 C 10.44 11.722 11.478 12.761 12.76 12.761 C 14.04 12.759 15.079 11.721 15.08 10.44 C 15.08 9.159 14.041 8.12 12.76 8.12 Z M 8.7 2.32 C 9.661 2.32 10.439 3.1 10.439 4.061 C 10.439 5.021 9.661 5.8 8.7 5.8 C 7.74 5.799 6.961 5.021 6.96 4.061 C 6.96 3.1 7.739 2.32 8.7 2.32 Z M 8.7 3.48 C 8.38 3.481 8.12 3.74 8.12 4.061 C 8.12 4.381 8.38 4.641 8.7 4.641 C 9.02 4.64 9.28 4.381 9.28 4.061 C 9.28 3.74 9.02 3.481 8.7 3.48 Z" fill="currentColor" fill-rule="nonzero"></path>
</svg>