<svg xmlns="http://www.w3.org/2000/svg" width="16" height="15.430" viewBox="0 0 16 15.430" fill="none">
  <path d="M 15.8 2.12 C 15.8 2.12 15.71 2.14 15.67 2.17 L 14.06 3.65 L 14.06 2.27 C 14.06 2.05 13.88 1.87 13.66 1.87 L 11.98 1.87 L 11.75 2.09 L 13.57 0.42 C 13.73 0.27 13.63 0 13.41 0 L 6.35 0 C 6.29 0 6.23 0.03 6.19 0.07 L 3.95 2.13 L 0.06 5.67 C 0.06 5.67 0 5.76 0 5.82 L 0 13.09 C 0 13.21 0.1 13.29 0.2 13.29 C 0.25 13.29 0.29 13.27 0.33 13.24 L 1.97 11.73 L 1.97 13.2 C 1.97 13.42 2.15 13.6 2.37 13.6 L 3.96 13.6 L 2.35 15.08 C 2.22 15.2 2.3 15.43 2.49 15.43 L 9.68 15.43 C 9.73 15.43 9.78 15.41 9.82 15.38 L 13.22 12.25 L 15.94 9.75 C 15.94 9.75 16 9.66 16 9.6 L 16 2.32 C 16 2.2 15.9 2.12 15.8 2.12 Z M 13.06 2.86 L 13.06 4.56 L 11.8 5.72 C 11.8 5.72 11.74 5.81 11.74 5.87 L 11.74 8.68 L 9.8 8.68 L 9.8 6.18 C 9.8 5.96 9.62 5.78 9.4 5.78 L 7.25 5.78 L 7.25 3.91 L 9.67 3.91 C 9.73 3.91 9.79 3.89 9.83 3.85 L 10.9 2.87 L 13.06 2.87 L 13.06 2.86 Z M 11.74 11.49 L 9.8 11.49 L 9.8 9.67 L 11.74 9.67 L 11.74 11.49 Z M 4.26 3.92 L 6.24 3.92 L 6.24 5.79 L 4.26 5.79 L 4.26 3.92 Z M 6.63 1 L 11.45 1 L 9.36 2.92 L 4.54 2.92 L 6.63 1 Z M 1.98 6.18 L 1.98 10.37 L 1 11.27 L 1 6.17 L 3.26 4.09 L 3.26 5.78 L 2.37 5.78 C 2.15 5.78 1.97 5.96 1.97 6.18 L 1.98 6.18 Z M 2.98 12.6 L 2.98 6.78 L 8.8 6.78 L 8.8 12.6 L 2.98 12.6 Z M 9.37 14.42 L 4.55 14.42 L 5.45 13.6 L 9.4 13.6 C 9.62 13.6 9.8 13.42 9.8 13.2 L 9.8 12.5 L 11.46 12.5 L 9.37 14.42 Z M 15 9.24 L 12.74 11.32 L 12.74 6.22 L 15 4.14 L 15 9.24 Z" fill="currentColor" fill-rule="nonzero"></path>
</svg>