<svg xmlns="http://www.w3.org/2000/svg" width="18" height="18" viewBox="0 0 18 18" fill="none">
  <path d="M 1.286 16.715 L 5.786 16.715 L 5.786 18 L 0 18 L 0 12.215 L 1.286 12.215 L 1.286 16.715 Z M 18 18 L 12.215 18 L 12.215 16.715 L 16.715 16.715 L 16.715 12.215 L 18 12.215 L 18 18 Z M 8.993 1.926 C 9.106 1.926 9.217 1.955 9.314 2.012 L 15.101 5.227 C 15.2 5.282 15.282 5.364 15.34 5.462 C 15.397 5.56 15.429 5.672 15.429 5.786 L 15.429 12.214 C 15.43 12.327 15.401 12.438 15.346 12.536 C 15.29 12.634 15.21 12.716 15.113 12.773 L 9.328 15.988 C 9.23 16.045 9.119 16.074 9.006 16.074 C 8.893 16.074 8.782 16.045 8.685 15.988 L 2.899 12.773 C 2.8 12.718 2.717 12.636 2.659 12.538 C 2.602 12.44 2.571 12.328 2.571 12.214 L 2.571 5.786 C 2.57 5.673 2.599 5.562 2.654 5.464 C 2.71 5.366 2.79 5.284 2.887 5.227 L 8.672 2.012 C 8.77 1.955 8.88 1.926 8.993 1.926 Z M 3.857 11.835 L 8.357 14.336 L 8.357 9.379 L 3.857 6.879 L 3.857 11.835 Z M 9.643 9.379 L 9.643 14.336 L 14.143 11.835 L 14.143 6.879 L 9.643 9.379 Z M 4.538 5.786 L 9 8.267 L 13.461 5.786 L 9 3.305 L 4.538 5.786 Z M 5.786 1.286 L 1.286 1.286 L 1.286 5.786 L 0 5.786 L 0 0 L 5.786 0 L 5.786 1.286 Z M 18 5.786 L 16.715 5.786 L 16.715 1.286 L 12.215 1.286 L 12.215 0 L 18 0 L 18 5.786 Z" fill="#FFFFFF" fill-rule="nonzero"></path>
</svg>