<svg xmlns="http://www.w3.org/2000/svg" width="17.600" height="16" viewBox="0 0 17.600 16" fill="none">
  <path d="M 8.8 9.601 C 9.86 9.601 10.878 10.022 11.628 10.771 C 12.378 11.522 12.8 12.539 12.8 13.6 L 12.8 15.2 C 12.8 15.642 12.442 16 12 16 C 11.558 16 11.199 15.642 11.199 15.2 L 11.199 13.6 C 11.199 12.963 10.947 12.353 10.497 11.903 C 10.047 11.453 9.436 11.2 8.8 11.2 L 3.999 11.2 C 3.363 11.2 2.753 11.453 2.303 11.903 C 1.853 12.353 1.6 12.963 1.6 13.6 L 1.6 15.2 C 1.6 15.642 1.242 16 0.8 16 C 0.358 16 0 15.642 0 15.2 L 0 13.6 C 0 12.539 0.421 11.522 1.171 10.771 C 1.921 10.021 2.938 9.601 3.999 9.601 L 8.8 9.601 Z M 13.625 10.305 C 13.735 9.877 14.172 9.619 14.6 9.729 C 15.458 9.951 16.219 10.452 16.762 11.152 C 17.304 11.853 17.599 12.714 17.6 13.6 L 17.6 15.2 C 17.6 15.642 17.242 16 16.8 16 C 16.358 16 16 15.642 16 15.2 L 16 13.601 L 15.992 13.402 C 15.954 12.942 15.782 12.5 15.497 12.133 C 15.171 11.713 14.715 11.411 14.2 11.278 C 13.773 11.168 13.515 10.732 13.625 10.305 Z M 6.399 0 C 8.609 0 10.399 1.791 10.399 4 C 10.399 6.209 8.608 8 6.399 8 C 4.19 8 2.4 6.209 2.399 4 C 2.4 1.791 4.19 0 6.399 0 Z M 11.225 0.705 C 11.334 0.277 11.77 0.019 12.198 0.128 C 13.059 0.348 13.822 0.849 14.366 1.551 C 14.911 2.252 15.206 3.116 15.206 4.004 C 15.206 4.892 14.911 5.755 14.366 6.457 C 13.822 7.158 13.058 7.659 12.198 7.879 C 11.77 7.988 11.334 7.73 11.225 7.303 C 11.115 6.875 11.373 6.439 11.801 6.329 C 12.317 6.197 12.776 5.896 13.103 5.476 C 13.429 5.055 13.605 4.537 13.605 4.004 C 13.605 3.471 13.429 2.953 13.103 2.532 C 12.776 2.111 12.317 1.811 11.801 1.679 C 11.373 1.569 11.115 1.133 11.225 0.705 Z M 6.399 1.6 C 5.074 1.6 3.999 2.675 3.999 4 C 3.999 5.325 5.074 6.399 6.399 6.399 C 7.725 6.399 8.8 5.325 8.8 4 C 8.8 2.675 7.725 1.6 6.399 1.6 Z" fill="currentColor" fill-rule="nonzero"></path>
</svg>