<svg xmlns="http://www.w3.org/2000/svg" width="16" height="11.199" viewBox="0 0 16 11.199" fill="none">
  <path d="M 0.809 9.6 C 1.25 9.6 1.608 9.958 1.608 10.399 C 1.608 10.841 1.25 11.199 0.809 11.199 L 0.8 11.199 C 0.358 11.199 0 10.841 0 10.399 C 0 9.958 0.358 9.6 0.8 9.6 L 0.809 9.6 Z M 15.199 9.6 C 15.641 9.6 16 9.958 16 10.399 C 16 10.841 15.641 11.199 15.199 11.199 L 4.8 11.199 C 4.358 11.199 4.001 10.841 4.001 10.399 C 4.001 9.958 4.358 9.6 4.8 9.6 L 15.199 9.6 Z M 0.809 4.8 C 1.25 4.8 1.608 5.158 1.608 5.6 C 1.608 6.041 1.25 6.399 0.809 6.399 L 0.8 6.399 C 0.358 6.399 0 6.041 0 5.6 C 0 5.158 0.358 4.8 0.8 4.8 L 0.809 4.8 Z M 15.199 4.8 C 15.641 4.8 16 5.158 16 5.6 C 16 6.041 15.641 6.399 15.199 6.399 L 4.8 6.399 C 4.358 6.399 4.001 6.041 4.001 5.6 C 4.001 5.158 4.358 4.8 4.8 4.8 L 15.199 4.8 Z M 0.809 0 C 1.25 0 1.608 0.358 1.608 0.8 C 1.608 1.241 1.25 1.599 0.809 1.6 L 0.8 1.6 C 0.358 1.599 0 1.241 0 0.8 C 0 0.358 0.358 0 0.8 0 L 0.809 0 Z M 15.199 0 C 15.641 0 16 0.358 16 0.8 C 16 1.242 15.641 1.6 15.199 1.6 L 4.8 1.6 C 4.358 1.599 4.001 1.241 4.001 0.8 C 4.001 0.358 4.358 0 4.8 0 L 15.199 0 Z" fill="#FFFFFF" fill-rule="evenodd"></path>
</svg>