<svg xmlns="http://www.w3.org/2000/svg" width="20" height="17.952" viewBox="0 0 20 17.952" fill="none">
  <path d="M 18.111 0 C 19.119 0.068 19.919 0.86 20 1.864 L 20 13.195 C 19.951 13.663 19.754 14.124 19.421 14.457 C 19.1 14.778 18.654 14.975 18.205 15.034 L 12.984 15.039 L 10.951 17.565 C 10.431 18.068 9.623 18.083 9.085 17.601 L 7.016 15.039 L 1.795 15.035 C 0.845 14.931 0.078 14.151 0 13.195 L 0 1.841 C 0.091 0.856 0.878 0.081 1.864 0 L 18.111 0 Z M 2.031 1.33 C 1.859 1.336 1.653 1.406 1.529 1.529 C 1.416 1.642 1.343 1.824 1.33 1.983 L 1.33 13.029 C 1.357 13.405 1.583 13.663 1.96 13.706 L 7.4 13.704 C 7.529 13.716 7.655 13.769 7.755 13.849 L 10.012 16.603 L 12.245 13.849 C 12.351 13.759 12.487 13.718 12.624 13.704 L 18.063 13.705 C 18.412 13.655 18.64 13.404 18.67 13.053 L 18.67 1.983 C 18.636 1.596 18.354 1.343 17.97 1.33 L 2.031 1.33 Z M 13.807 9.412 C 14.538 9.59 14.482 10.625 13.738 10.733 L 10.327 10.73 C 9.584 10.612 9.544 9.578 10.279 9.412 L 13.807 9.412 Z M 6.17 4.329 C 6.418 4.288 6.609 4.342 6.805 4.49 C 7.675 5.329 8.669 6.077 9.538 6.912 C 9.898 7.258 10.033 7.574 9.681 8.006 L 6.781 10.569 C 6.08 11.11 5.271 10.207 5.891 9.56 L 8.194 7.518 L 5.986 5.57 C 5.51 5.273 5.602 4.425 6.17 4.329 Z" fill="#FFFFFF" fill-rule="nonzero"></path>
</svg>