<svg xmlns="http://www.w3.org/2000/svg" width="16" height="16" viewBox="0 0 16 16" fill="none">
  <path d="M 14.857 0 C 15.488 0.001 15.999 0.512 16 1.143 L 16 14.857 C 15.999 15.488 15.488 15.999 14.857 16 L 1.143 16 C 0.512 15.999 0.001 15.488 0 14.857 L 0 1.143 C 0.001 0.512 0.512 0.001 1.143 0 L 14.857 0 Z M 1.143 14.857 L 14.858 14.857 L 14.857 6.286 L 1.143 6.286 L 1.143 14.857 Z M 5.711 8.057 C 7.017 8.32 8 9.474 8 10.857 C 8 12.435 6.72 13.714 5.143 13.714 C 3.76 13.712 2.607 12.73 2.343 11.425 C 2.28 11.116 2.542 10.857 2.857 10.857 C 3.173 10.857 3.419 11.12 3.522 11.418 C 3.755 12.089 4.392 12.571 5.143 12.571 C 6.089 12.571 6.857 11.804 6.857 10.857 C 6.857 10.107 6.375 9.469 5.704 9.236 C 5.406 9.133 5.143 8.887 5.143 8.571 C 5.143 8.256 5.402 7.994 5.711 8.057 Z M 10.857 8 C 11.173 8 11.429 8.256 11.429 8.571 L 11.429 13.143 C 11.429 13.458 11.173 13.714 10.857 13.714 C 10.542 13.714 10.286 13.458 10.286 13.143 L 10.286 8.571 C 10.286 8.256 10.542 8 10.857 8 Z M 13.143 10.857 C 13.458 10.857 13.714 11.113 13.714 11.429 L 13.714 13.143 C 13.714 13.458 13.458 13.714 13.143 13.714 C 12.827 13.714 12.571 13.458 12.571 13.143 L 12.571 11.429 C 12.571 11.113 12.827 10.858 13.143 10.857 Z M 1.143 1.143 L 1.143 5.143 L 5.714 5.143 L 5.714 1.143 L 1.143 1.143 Z M 6.857 5.143 L 14.857 5.143 L 14.857 1.143 L 6.857 1.143 L 6.857 5.143 Z" fill="currentColor" fill-rule="nonzero"></path>
</svg>