<svg xmlns="http://www.w3.org/2000/svg" width="121.112" height="14" viewBox="0 0 121.112 14" fill="none">
  <path d="M 28.831 0 C 33.104 0 36.237 2.959 36.237 7 C 36.237 11.041 33.085 14 28.831 14 C 24.577 14 21.425 11.022 21.425 7 C 21.425 2.978 24.558 0 28.831 0 Z M 52.575 0.241 C 56.191 0.241 58.453 2.118 58.453 5.153 C 58.453 7.184 57.429 8.673 55.669 9.427 L 58.705 13.777 L 55.34 13.777 L 52.729 10.007 L 49.849 10.007 L 49.849 13.777 L 46.716 13.777 L 46.716 0.241 L 52.575 0.241 Z M 5.859 0.232 C 9.475 0.233 11.737 2.108 11.737 5.144 C 11.737 8.16 9.475 10.036 5.859 10.036 L 3.133 10.036 L 3.133 13.768 L 0 13.768 L 0 0.232 L 5.859 0.232 Z M 79.129 2.784 L 74.797 2.784 L 74.797 13.768 L 71.664 13.768 L 71.664 2.784 L 67.333 2.784 L 67.333 0.232 L 79.129 0.232 L 79.129 2.784 Z M 101.653 13.768 L 98.366 13.768 L 97.167 10.867 L 90.883 10.867 L 89.684 13.768 L 86.474 13.768 L 92.507 0.232 L 95.601 0.232 L 101.653 13.768 Z M 114.325 11.216 L 121.112 11.216 L 121.112 13.768 L 111.192 13.768 L 111.192 0.232 L 114.325 0.232 L 114.325 11.216 Z M 28.831 2.669 C 26.414 2.669 24.596 4.428 24.596 7 C 24.596 9.572 26.414 11.331 28.831 11.331 C 31.248 11.331 33.065 9.572 33.065 7 C 33.065 4.428 31.248 2.669 28.831 2.669 Z M 91.888 8.489 L 96.181 8.489 L 94.034 3.307 L 91.888 8.489 Z M 49.849 7.503 L 52.4 7.503 C 54.315 7.503 55.282 6.613 55.282 5.144 C 55.282 3.674 54.315 2.784 52.4 2.784 L 49.849 2.784 L 49.849 7.503 Z M 3.133 7.483 L 5.686 7.483 C 7.6 7.483 8.566 6.613 8.566 5.144 C 8.566 3.655 7.6 2.784 5.686 2.784 L 3.133 2.784 L 3.133 7.483 Z" fill="#FFFFFF" fill-rule="nonzero"></path>
</svg>