<svg xmlns="http://www.w3.org/2000/svg" width="76.511" height="9.320" viewBox="0 0 76.511 9.320" fill="none">
  <path d="M 45.337 5.06 C 45.417 5.266 45.497 5.49 45.577 5.73 C 45.657 5.97 45.734 6.203 45.808 6.43 L 45.848 6.43 C 45.921 6.203 45.991 5.973 46.058 5.74 C 46.131 5.5 46.197 5.273 46.257 5.06 L 47.127 2.37 L 47.928 2.37 L 46.098 7.63 C 45.984 7.95 45.847 8.237 45.688 8.49 C 45.528 8.75 45.334 8.953 45.107 9.1 C 44.881 9.246 44.604 9.32 44.277 9.32 C 44.171 9.32 44.068 9.31 43.968 9.29 C 43.874 9.27 43.787 9.246 43.707 9.22 L 43.888 8.58 C 43.948 8.6 44.008 8.613 44.067 8.62 C 44.127 8.633 44.184 8.64 44.237 8.64 C 44.517 8.64 44.744 8.54 44.917 8.34 C 45.097 8.147 45.237 7.9 45.337 7.6 L 45.447 7.24 L 43.497 2.37 L 44.348 2.37 L 45.337 5.06 Z M 58.134 4.4 C 58.207 4.627 58.274 4.857 58.334 5.09 C 58.394 5.323 58.458 5.563 58.524 5.81 L 58.564 5.81 C 58.618 5.576 58.671 5.343 58.725 5.11 C 58.785 4.87 58.844 4.634 58.904 4.4 L 59.504 2.27 L 60.914 2.27 L 59.194 7.28 C 59.034 7.694 58.86 8.04 58.674 8.32 C 58.494 8.6 58.27 8.81 58.004 8.95 C 57.744 9.097 57.417 9.17 57.024 9.17 C 56.878 9.17 56.747 9.16 56.634 9.14 C 56.527 9.12 56.424 9.09 56.324 9.05 L 56.584 7.97 C 56.657 7.99 56.718 8 56.765 8 C 56.818 8.007 56.868 8.01 56.914 8.01 C 57.161 8.01 57.351 7.947 57.484 7.82 C 57.624 7.7 57.724 7.547 57.784 7.36 L 57.854 7.1 L 55.944 2.27 L 57.424 2.27 L 58.134 4.4 Z M 7.229 2.25 C 7.629 2.25 8 2.35 8.34 2.55 C 8.68 2.75 8.953 3.04 9.16 3.42 C 9.373 3.8 9.479 4.263 9.479 4.81 C 9.479 5.343 9.373 5.8 9.16 6.18 C 8.953 6.56 8.68 6.85 8.34 7.05 C 8 7.25 7.629 7.35 7.229 7.35 C 6.836 7.35 6.467 7.25 6.12 7.05 C 5.78 6.85 5.503 6.56 5.29 6.18 C 5.083 5.8 4.979 5.343 4.979 4.81 C 4.98 4.263 5.083 3.8 5.29 3.42 C 5.503 3.04 5.78 2.75 6.12 2.55 C 6.467 2.35 6.836 2.25 7.229 2.25 Z M 19.699 2.25 C 20.112 2.25 20.462 2.347 20.749 2.54 C 21.042 2.727 21.263 2.99 21.409 3.33 C 21.556 3.67 21.629 4.07 21.629 4.53 C 21.629 4.617 21.626 4.7 21.619 4.78 C 21.619 4.86 21.609 4.94 21.589 5.02 L 18.34 5.02 C 18.361 5.333 18.426 5.604 18.539 5.83 C 18.686 6.11 18.882 6.323 19.129 6.47 C 19.376 6.61 19.646 6.68 19.939 6.68 C 20.173 6.68 20.389 6.647 20.589 6.58 C 20.796 6.513 20.983 6.423 21.149 6.31 L 21.449 6.85 C 21.236 6.996 20.996 7.117 20.729 7.21 C 20.469 7.303 20.172 7.35 19.839 7.35 C 19.406 7.35 19.009 7.25 18.649 7.05 C 18.296 6.843 18.016 6.553 17.81 6.18 C 17.603 5.8 17.499 5.34 17.499 4.8 C 17.499 4.273 17.606 3.82 17.819 3.44 C 18.033 3.06 18.306 2.766 18.64 2.56 C 18.973 2.353 19.326 2.25 19.699 2.25 Z M 28.029 2.25 C 28.443 2.25 28.792 2.347 29.079 2.54 C 29.372 2.727 29.593 2.99 29.739 3.33 C 29.886 3.67 29.959 4.07 29.959 4.53 C 29.959 4.617 29.956 4.7 29.949 4.78 C 29.949 4.86 29.939 4.94 29.919 5.02 L 26.67 5.02 C 26.692 5.333 26.756 5.604 26.869 5.83 C 27.016 6.11 27.212 6.323 27.459 6.47 C 27.706 6.61 27.976 6.68 28.27 6.68 C 28.503 6.68 28.719 6.647 28.919 6.58 C 29.126 6.513 29.313 6.423 29.479 6.31 L 29.779 6.85 C 29.566 6.996 29.326 7.117 29.06 7.21 C 28.8 7.303 28.502 7.35 28.169 7.35 C 27.736 7.35 27.339 7.25 26.979 7.05 C 26.626 6.843 26.346 6.553 26.14 6.18 C 25.933 5.8 25.829 5.34 25.829 4.8 C 25.829 4.273 25.936 3.82 26.149 3.44 C 26.363 3.06 26.636 2.766 26.97 2.56 C 27.303 2.353 27.656 2.25 28.029 2.25 Z M 35.07 7.23 L 34.391 7.23 L 34.32 6.66 L 34.29 6.66 C 34.103 6.847 33.883 7.01 33.63 7.15 C 33.377 7.284 33.107 7.35 32.82 7.35 C 32.207 7.35 31.717 7.13 31.351 6.69 C 30.991 6.244 30.811 5.616 30.811 4.81 C 30.811 4.283 30.907 3.83 31.101 3.45 C 31.301 3.064 31.56 2.766 31.88 2.56 C 32.2 2.353 32.547 2.25 32.92 2.25 C 33.207 2.25 33.45 2.3 33.65 2.4 C 33.857 2.494 34.067 2.63 34.28 2.81 L 34.24 1.98 L 34.24 0.11 L 35.07 0.11 L 35.07 7.23 Z M 39.529 2.05 L 39.509 2.93 C 39.729 2.736 39.969 2.577 40.229 2.45 C 40.496 2.317 40.763 2.25 41.029 2.25 C 41.449 2.25 41.802 2.353 42.089 2.56 C 42.376 2.76 42.593 3.047 42.739 3.42 C 42.886 3.787 42.959 4.22 42.959 4.72 C 42.959 5.273 42.859 5.746 42.659 6.14 C 42.466 6.533 42.209 6.833 41.889 7.04 C 41.569 7.247 41.226 7.35 40.859 7.35 C 40.633 7.35 40.399 7.297 40.159 7.19 C 39.919 7.077 39.689 6.924 39.469 6.73 L 39.439 6.73 L 39.369 7.23 L 38.709 7.23 L 38.709 0.11 L 39.529 0.11 L 39.529 2.05 Z M 70.167 2.15 C 70.527 2.15 70.854 2.21 71.147 2.33 C 71.447 2.443 71.704 2.594 71.917 2.78 L 71.287 3.6 C 71.107 3.473 70.927 3.383 70.747 3.33 C 70.567 3.27 70.39 3.24 70.217 3.24 C 70.024 3.24 69.88 3.276 69.787 3.35 C 69.694 3.423 69.647 3.517 69.647 3.63 C 69.647 3.723 69.68 3.803 69.747 3.87 C 69.814 3.937 69.914 4 70.047 4.06 C 70.187 4.113 70.361 4.174 70.567 4.24 C 70.821 4.327 71.05 4.437 71.257 4.57 C 71.47 4.697 71.637 4.857 71.757 5.05 C 71.877 5.243 71.938 5.477 71.938 5.75 C 71.938 6.05 71.857 6.32 71.697 6.56 C 71.544 6.799 71.317 6.993 71.018 7.14 C 70.718 7.28 70.344 7.35 69.897 7.35 C 69.571 7.35 69.233 7.287 68.887 7.16 C 68.54 7.034 68.244 6.85 67.997 6.61 L 68.617 5.78 C 68.844 5.96 69.067 6.087 69.287 6.16 C 69.514 6.227 69.731 6.26 69.938 6.26 C 70.157 6.26 70.317 6.224 70.417 6.15 C 70.517 6.07 70.567 5.967 70.567 5.84 C 70.567 5.727 70.52 5.633 70.427 5.56 C 70.34 5.486 70.224 5.423 70.077 5.37 C 69.937 5.31 69.777 5.246 69.597 5.18 C 69.357 5.093 69.137 4.983 68.938 4.85 C 68.738 4.716 68.574 4.557 68.447 4.37 C 68.327 4.183 68.268 3.96 68.268 3.7 C 68.268 3.234 68.44 2.86 68.787 2.58 C 69.14 2.293 69.6 2.15 70.167 2.15 Z M 1.87 0.67 C 2.363 0.67 2.794 0.734 3.16 0.86 C 3.527 0.98 3.813 1.18 4.02 1.46 C 4.226 1.74 4.33 2.12 4.33 2.6 C 4.33 3.06 4.226 3.44 4.02 3.74 C 3.82 4.033 3.536 4.257 3.17 4.41 C 2.81 4.557 2.39 4.63 1.91 4.63 L 0.83 4.63 L 0.83 7.23 L 0 7.23 L 0 0.67 L 1.87 0.67 Z M 11.711 5.18 C 11.764 5.4 11.814 5.62 11.86 5.84 C 11.907 6.06 11.951 6.3 11.991 6.56 L 12.03 6.56 C 12.084 6.3 12.134 6.06 12.181 5.84 C 12.234 5.62 12.287 5.4 12.341 5.18 L 13.061 2.37 L 13.961 2.37 L 14.69 5.18 C 14.75 5.4 14.804 5.62 14.851 5.84 C 14.904 6.06 14.957 6.3 15.011 6.56 L 15.051 6.56 C 15.104 6.3 15.155 6.06 15.201 5.84 C 15.248 5.62 15.294 5.4 15.341 5.18 L 16.051 2.37 L 16.851 2.37 L 15.541 7.23 L 14.471 7.23 L 13.82 4.63 C 13.767 4.403 13.714 4.18 13.661 3.96 C 13.614 3.733 13.564 3.477 13.511 3.19 L 13.471 3.19 C 13.424 3.477 13.374 3.733 13.32 3.96 C 13.274 4.187 13.221 4.41 13.161 4.63 L 12.511 7.23 L 11.491 7.23 L 10.141 2.37 L 11.001 2.37 L 11.711 5.18 Z M 24.99 2.25 C 25.097 2.25 25.191 2.256 25.271 2.27 C 25.35 2.283 25.43 2.31 25.51 2.35 L 25.33 3.05 C 25.257 3.03 25.187 3.016 25.12 3.01 C 25.06 2.996 24.98 2.99 24.88 2.99 C 24.673 2.99 24.457 3.074 24.23 3.24 C 24.01 3.407 23.817 3.697 23.65 4.11 L 23.65 7.23 L 22.83 7.23 L 22.83 2.37 L 23.51 2.37 L 23.58 3.25 L 23.61 3.25 C 23.77 2.943 23.97 2.7 24.21 2.52 C 24.45 2.34 24.71 2.25 24.99 2.25 Z M 53.682 2.15 C 54.228 2.15 54.621 2.33 54.861 2.69 C 55.101 3.044 55.222 3.53 55.222 4.15 L 55.222 7.23 L 53.752 7.23 L 53.752 4.34 C 53.752 3.98 53.702 3.733 53.602 3.6 C 53.508 3.466 53.355 3.4 53.142 3.4 C 52.955 3.4 52.794 3.444 52.661 3.53 C 52.528 3.61 52.381 3.727 52.222 3.88 L 52.222 7.23 L 50.752 7.23 L 50.752 2.27 L 51.951 2.27 L 52.052 2.9 L 52.092 2.9 C 52.298 2.694 52.532 2.517 52.792 2.37 C 53.052 2.224 53.348 2.15 53.682 2.15 Z M 64.439 2.15 C 64.579 2.15 64.696 2.16 64.789 2.18 C 64.882 2.193 64.963 2.217 65.029 2.25 L 64.749 3.5 C 64.669 3.48 64.593 3.467 64.52 3.46 C 64.446 3.447 64.356 3.44 64.249 3.44 C 64.062 3.44 63.866 3.506 63.659 3.64 C 63.459 3.773 63.292 4.01 63.159 4.35 L 63.159 7.23 L 61.689 7.23 L 61.689 2.27 L 62.889 2.27 L 62.989 3.14 L 63.029 3.14 C 63.209 2.807 63.422 2.56 63.669 2.4 C 63.922 2.234 64.179 2.15 64.439 2.15 Z M 67.144 7.23 L 65.674 7.23 L 65.674 2.27 L 67.144 2.27 L 67.144 7.23 Z M 7.229 2.93 C 6.95 2.93 6.703 3.01 6.49 3.17 C 6.284 3.323 6.12 3.543 6 3.83 C 5.887 4.11 5.83 4.436 5.83 4.81 C 5.83 5.176 5.887 5.5 6 5.78 C 6.12 6.06 6.284 6.28 6.49 6.44 C 6.703 6.593 6.95 6.67 7.229 6.67 C 7.509 6.67 7.756 6.594 7.97 6.44 C 8.183 6.28 8.347 6.06 8.46 5.78 C 8.573 5.5 8.63 5.176 8.63 4.81 C 8.63 4.436 8.573 4.11 8.46 3.83 C 8.347 3.543 8.183 3.323 7.97 3.17 C 7.756 3.01 7.509 2.93 7.229 2.93 Z M 33.061 2.94 C 32.801 2.94 32.564 3.02 32.351 3.18 C 32.144 3.333 31.977 3.55 31.851 3.83 C 31.724 4.103 31.66 4.427 31.66 4.8 C 31.66 5.38 31.777 5.837 32.01 6.17 C 32.243 6.497 32.573 6.66 33 6.66 C 33.227 6.66 33.441 6.604 33.641 6.49 C 33.841 6.377 34.04 6.21 34.24 5.99 L 34.24 3.45 C 34.04 3.264 33.844 3.133 33.65 3.06 C 33.457 2.98 33.26 2.94 33.061 2.94 Z M 40.829 2.94 C 40.629 2.94 40.419 2.997 40.199 3.11 C 39.986 3.217 39.763 3.38 39.529 3.6 L 39.529 6.15 C 39.743 6.337 39.953 6.47 40.159 6.55 C 40.372 6.623 40.559 6.66 40.719 6.66 C 40.985 6.66 41.222 6.583 41.429 6.43 C 41.642 6.276 41.809 6.056 41.929 5.77 C 42.049 5.476 42.109 5.13 42.109 4.73 C 42.109 4.377 42.066 4.066 41.979 3.8 C 41.893 3.527 41.756 3.317 41.569 3.17 C 41.383 3.017 41.136 2.94 40.829 2.94 Z M 28.039 2.92 C 27.819 2.92 27.603 2.984 27.39 3.11 C 27.176 3.23 26.999 3.427 26.859 3.7 C 26.77 3.883 26.714 4.107 26.685 4.37 L 29.22 4.37 C 29.22 3.903 29.116 3.546 28.909 3.3 C 28.709 3.047 28.419 2.92 28.039 2.92 Z M 19.709 2.92 C 19.489 2.92 19.273 2.984 19.06 3.11 C 18.846 3.23 18.669 3.427 18.529 3.7 C 18.44 3.883 18.384 4.107 18.354 4.37 L 20.89 4.37 C 20.89 3.903 20.786 3.546 20.579 3.3 C 20.379 3.047 20.089 2.92 19.709 2.92 Z M 74.53 0.08 C 74.89 0.08 75.221 0.167 75.521 0.34 C 75.827 0.513 76.067 0.753 76.24 1.06 C 76.42 1.359 76.511 1.706 76.511 2.1 C 76.511 2.493 76.42 2.844 76.24 3.15 C 76.067 3.45 75.827 3.687 75.521 3.86 C 75.221 4.034 74.89 4.12 74.53 4.12 C 74.164 4.12 73.83 4.034 73.53 3.86 C 73.23 3.687 72.991 3.45 72.811 3.15 C 72.631 2.844 72.541 2.493 72.541 2.1 C 72.541 1.706 72.631 1.359 72.811 1.06 C 72.99 0.753 73.23 0.513 73.53 0.34 C 73.83 0.167 74.164 0.08 74.53 0.08 Z M 0.83 3.95 L 1.81 3.95 C 2.383 3.95 2.807 3.84 3.08 3.62 C 3.36 3.4 3.5 3.06 3.5 2.6 C 3.5 2.126 3.353 1.8 3.06 1.62 C 2.773 1.434 2.343 1.34 1.77 1.34 L 0.83 1.34 L 0.83 3.95 Z M 74.53 0.57 C 74.25 0.57 74 0.633 73.78 0.76 C 73.567 0.886 73.397 1.067 73.271 1.3 C 73.151 1.526 73.091 1.793 73.091 2.1 C 73.091 2.406 73.151 2.677 73.271 2.91 C 73.397 3.137 73.567 3.314 73.78 3.44 C 74 3.567 74.25 3.63 74.53 3.63 C 74.81 3.63 75.057 3.567 75.271 3.44 C 75.484 3.314 75.651 3.137 75.771 2.91 C 75.897 2.677 75.961 2.406 75.961 2.1 C 75.961 1.793 75.897 1.526 75.771 1.3 C 75.651 1.067 75.484 0.886 75.271 0.76 C 75.057 0.633 74.81 0.57 74.53 0.57 Z M 74.61 1.1 C 74.844 1.1 75.037 1.153 75.19 1.26 C 75.344 1.366 75.421 1.533 75.421 1.76 C 75.421 1.866 75.391 1.97 75.331 2.07 C 75.278 2.17 75.19 2.246 75.07 2.3 L 75.48 3.07 L 74.881 3.07 L 74.581 2.47 L 74.291 2.47 L 74.291 3.07 L 73.721 3.07 L 73.721 1.1 L 74.61 1.1 Z M 74.291 2.07 L 74.501 2.07 C 74.601 2.07 74.674 2.043 74.721 1.99 C 74.774 1.937 74.801 1.87 74.801 1.79 C 74.801 1.717 74.774 1.657 74.721 1.61 C 74.674 1.557 74.601 1.53 74.501 1.53 L 74.291 1.53 L 74.291 2.07 Z M 66.403 0 C 66.65 0 66.851 0.07 67.004 0.21 C 67.157 0.35 67.233 0.537 67.233 0.77 C 67.233 1.003 67.157 1.19 67.004 1.33 C 66.851 1.47 66.65 1.54 66.403 1.54 C 66.157 1.54 65.957 1.47 65.804 1.33 C 65.65 1.19 65.573 1.003 65.573 0.77 C 65.573 0.536 65.65 0.35 65.804 0.21 C 65.957 0.07 66.157 0 66.403 0 Z" fill="currentColor" fill-rule="nonzero"></path>
</svg>